<svg width="50" height="51" viewBox="0 0 50 51" fill="none" xmlns="http://www.w3.org/2000/svg">
<path d="M37.5 17.1667C40.9518 17.1667 43.75 14.3685 43.75 10.9167C43.75 7.46491 40.9518 4.66669 37.5 4.66669C34.0482 4.66669 31.25 7.46491 31.25 10.9167C31.25 14.3685 34.0482 17.1667 37.5 17.1667Z" stroke="white" stroke-width="4.16667" stroke-linecap="round" stroke-linejoin="round"/>
<path d="M12.5 31.75C15.9518 31.75 18.75 28.9518 18.75 25.5C18.75 22.0482 15.9518 19.25 12.5 19.25C9.04822 19.25 6.25 22.0482 6.25 25.5C6.25 28.9518 9.04822 31.75 12.5 31.75Z" stroke="white" stroke-width="4.16667" stroke-linecap="round" stroke-linejoin="round"/>
<path d="M37.5 46.3333C40.9518 46.3333 43.75 43.5351 43.75 40.0833C43.75 36.6315 40.9518 33.8333 37.5 33.8333C34.0482 33.8333 31.25 36.6315 31.25 40.0833C31.25 43.5351 34.0482 46.3333 37.5 46.3333Z" stroke="white" stroke-width="4.16667" stroke-linecap="round" stroke-linejoin="round"/>
<path d="M17.8945 28.6459L32.1237 36.9375" stroke="white" stroke-width="4.16667" stroke-linecap="round" stroke-linejoin="round"/>
<path d="M32.1029 14.0625L17.8945 22.3542" stroke="white" stroke-width="4.16667" stroke-linecap="round" stroke-linejoin="round"/>
</svg>
