<svg width="159" height="160" viewBox="0 0 159 160" fill="none" xmlns="http://www.w3.org/2000/svg">
<path d="M79.6895 0.78125C64.0215 0.78125 48.7054 5.42735 35.6779 14.132C22.6505 22.8367 12.4968 35.209 6.50091 49.6843C0.505027 64.1596 -1.06377 80.0879 1.99291 95.4548C5.04958 110.822 12.5944 124.937 23.6734 136.016C34.7523 147.095 48.8677 154.64 64.2347 157.697C79.6016 160.753 95.5299 159.184 110.005 153.189C124.481 147.193 136.853 137.039 145.557 124.012C154.262 110.984 158.908 95.668 158.908 80C158.886 58.9967 150.533 38.86 135.681 24.0084C120.83 9.15679 100.693 0.80343 79.6895 0.78125ZM114.47 66.0301L71.8133 108.686C71.2474 109.253 70.5753 109.702 69.8355 110.009C69.0958 110.316 68.3028 110.474 67.502 110.474C66.7012 110.474 65.9082 110.316 65.1684 110.009C64.4287 109.702 63.7566 109.253 63.1907 108.686L44.9094 90.4051C43.766 89.2617 43.1236 87.7108 43.1236 86.0938C43.1236 84.4767 43.766 82.9259 44.9094 81.7824C46.0528 80.639 47.6037 79.9966 49.2207 79.9966C50.8378 79.9966 52.3886 80.639 53.5321 81.7824L67.502 95.76L105.847 57.4074C106.413 56.8413 107.085 56.3921 107.825 56.0857C108.565 55.7793 109.358 55.6216 110.158 55.6216C110.959 55.6216 111.752 55.7793 112.492 56.0857C113.231 56.3921 113.903 56.8413 114.47 57.4074C115.036 57.9736 115.485 58.6457 115.791 59.3855C116.098 60.1252 116.255 60.9181 116.255 61.7188C116.255 62.5194 116.098 63.3123 115.791 64.052C115.485 64.7918 115.036 65.4639 114.47 66.0301Z" fill="#32B638"/>
</svg>
