<svg width="14" height="19" viewBox="0 0 14 19" fill="none" xmlns="http://www.w3.org/2000/svg">
<path d="M7 0.75C5.17727 0.752068 3.42979 1.47706 2.14092 2.76592C0.85206 4.05479 0.127068 5.80227 0.125 7.625C0.125 13.5078 6.375 17.9508 6.64141 18.1367C6.74649 18.2103 6.87169 18.2498 7 18.2498C7.12831 18.2498 7.25351 18.2103 7.35859 18.1367C7.625 17.9508 13.875 13.5078 13.875 7.625C13.8729 5.80227 13.1479 4.05479 11.8591 2.76592C10.5702 1.47706 8.82273 0.752068 7 0.75ZM7 5.125C7.49445 5.125 7.9778 5.27162 8.38893 5.54633C8.80005 5.82103 9.12048 6.21148 9.3097 6.66829C9.49892 7.12511 9.54843 7.62777 9.45196 8.11273C9.3555 8.59768 9.1174 9.04314 8.76777 9.39277C8.41814 9.7424 7.97268 9.9805 7.48773 10.077C7.00277 10.1734 6.50011 10.1239 6.04329 9.9347C5.58648 9.74548 5.19603 9.42505 4.92133 9.01393C4.64662 8.6028 4.5 8.11945 4.5 7.625C4.5 6.96196 4.76339 6.32607 5.23223 5.85723C5.70107 5.38839 6.33696 5.125 7 5.125Z" fill="#FC8A06"/>
</svg>
