<svg width="17" height="15" viewBox="0 0 17 15" fill="none" xmlns="http://www.w3.org/2000/svg">
<path d="M14.875 3.125H2.375C2.20924 3.125 2.05027 3.05915 1.93306 2.94194C1.81585 2.82473 1.75 2.66576 1.75 2.5C1.75 2.33424 1.81585 2.17527 1.93306 2.05806C2.05027 1.94085 2.20924 1.875 2.375 1.875H13C13.1658 1.875 13.3247 1.80915 13.4419 1.69194C13.5592 1.57473 13.625 1.41576 13.625 1.25C13.625 1.08424 13.5592 0.925269 13.4419 0.808058C13.3247 0.690848 13.1658 0.625 13 0.625H2.375C1.87772 0.625 1.40081 0.822544 1.04917 1.17417C0.697544 1.52581 0.5 2.00272 0.5 2.5V12.5C0.5 12.9973 0.697544 13.4742 1.04917 13.8258C1.40081 14.1775 1.87772 14.375 2.375 14.375H14.875C15.2065 14.375 15.5245 14.2433 15.7589 14.0089C15.9933 13.7745 16.125 13.4565 16.125 13.125V4.375C16.125 4.04348 15.9933 3.72554 15.7589 3.49112C15.5245 3.2567 15.2065 3.125 14.875 3.125ZM12.0625 9.375C11.8771 9.375 11.6958 9.32002 11.5417 9.217C11.3875 9.11399 11.2673 8.96757 11.1964 8.79626C11.1254 8.62496 11.1068 8.43646 11.143 8.2546C11.1792 8.07275 11.2685 7.9057 11.3996 7.77459C11.5307 7.64348 11.6977 7.55419 11.8796 7.51801C12.0615 7.48184 12.25 7.50041 12.4213 7.57136C12.5926 7.64232 12.739 7.76248 12.842 7.91665C12.945 8.07082 13 8.25208 13 8.4375C13 8.68614 12.9012 8.9246 12.7254 9.10041C12.5496 9.27623 12.3111 9.375 12.0625 9.375Z" fill="#FC8A06"/>
</svg>
